<?xml version="1.0" encoding="utf-8"?>
<!-- Generator: Adobe Illustrator 16.0.0, SVG Export Plug-In . SVG Version: 6.00 Build 0)  -->
<!DOCTYPE svg PUBLIC "-//W3C//DTD SVG 1.1//EN" "http://www.w3.org/Graphics/SVG/1.1/DTD/svg11.dtd">
<svg version="1.1" id="Layer_1" xmlns="http://www.w3.org/2000/svg" xmlns:xlink="http://www.w3.org/1999/xlink" x="0px" y="0px"
	 width="168px" height="168px" viewBox="-20 -20 168 168" enable-background="new -20 -20 168 168" xml:space="preserve">
<path fill="#6EA9CE" d="M128,111c0,9.389-7.611,17-17,17H17c-9.389,0-17-7.611-17-17V17C0,7.611,7.611,0,17,0h94
	c9.389,0,17,7.611,17,17V111z"/>
<path d="M16,37.333v32c0,26.509,21.49,48,48,48s48-21.491,48-48v-32H90.666v32C90.666,84.061,78.728,96,64,96
	S37.333,84.061,37.333,69.334v-32 M90.666,26.667H112v-16H90.666 M16,26.667h21.333v-16H16 M69.334,8L48,48h10.667v29.334l21.333-40
	H69.334V8z"/>
<image display="none" overflow="visible" width="168" height="168" xlink:href="../app/static/images/icon.png"  transform="matrix(1 0 0 1 -20 -20)">
</image>
</svg>
